<?xml version="1.0" standalone="no"?>
<!DOCTYPE svg PUBLIC "-//W3C//DTD SVG 20010904//EN"
 "http://www.w3.org/TR/2001/REC-SVG-20010904/DTD/svg10.dtd">
<svg version="1.0" xmlns="http://www.w3.org/2000/svg"
 width="306.000000pt" height="78.000000pt" viewBox="0 0 306.000000 78.000000"
 preserveAspectRatio="xMidYMid meet">

<g transform="translate(0.000000,78.000000) scale(0.100000,-0.100000)"
fill="#000000" stroke="none">
<path d="M2941 584 c-25 -32 -26 -52 -5 -82 21 -31 87 -31 108 0 51 73 -48
151 -103 82z m74 10 c50 -20 31 -104 -23 -104 -35 0 -52 17 -52 51 0 45 34 69
75 53z"/>
<path d="M2960 546 c0 -35 20 -53 20 -18 1 16 1 16 14 0 19 -26 24 -22 22 15
-1 27 -6 32 -29 35 -25 3 -27 1 -27 -32z m40 14 c0 -5 -4 -10 -10 -10 -5 0
-10 5 -10 10 0 6 5 10 10 10 6 0 10 -4 10 -10z"/>
<path d="M1067 563 c-9 -16 -50 -183 -46 -187 2 -2 48 1 102 7 l98 10 19 38
c19 36 56 69 93 82 10 4 17 17 17 32 l0 25 -139 0 c-77 0 -142 -3 -144 -7z"/>
<path d="M1420 562 c0 -4 20 -18 46 -31 25 -13 50 -33 56 -44 5 -11 6 -17 1
-14 -6 4 -22 -6 -36 -21 -19 -20 -24 -31 -17 -42 5 -8 10 -25 10 -37 0 -22 3
-23 73 -21 l72 2 -63 3 -63 4 25 20 c14 11 26 28 26 37 0 14 1 14 13 -1 8 -11
44 -20 122 -30 61 -8 111 -13 113 -12 2 2 -1 21 -7 42 -22 79 -105 125 -258
143 -106 12 -113 12 -113 2z"/>
<path d="M1726 540 c29 -16 62 -45 74 -66 l23 -36 141 4 c120 2 146 6 176 23
33 20 65 78 53 98 -2 4 -120 7 -261 7 l-257 0 51 -30z"/>
<path d="M2334 561 c-70 -17 -139 -83 -188 -178 l-17 -33 126 0 126 0 26 30
c43 52 70 60 195 60 62 0 130 5 150 11 50 13 86 47 90 84 l3 30 -240 2 c-132
0 -254 -2 -271 -6z"/>
<path d="M145 548 c-2 -7 -15 -55 -28 -105 l-25 -93 78 0 78 0 10 38 c6 23 10
29 11 15 2 -52 6 -53 127 -53 63 0 114 3 114 8 0 4 -7 48 -15 97 -8 50 -15 93
-15 98 0 4 -74 7 -165 7 -124 0 -167 -3 -170 -12z"/>
<path d="M691 536 c-18 -14 -58 -60 -88 -103 l-54 -78 78 -3 c77 -3 78 -3 105
30 30 35 34 34 18 -6 l-10 -26 98 0 c63 0 104 4 114 13 9 6 27 54 41 105 l25
92 -147 0 c-140 0 -149 -1 -180 -24z"/>
<path d="M1335 400 c-26 -28 -15 -31 12 -3 12 13 19 23 14 23 -4 0 -16 -9 -26
-20z"/>
<path d="M1392 365 c-11 -12 -10 -15 3 -15 8 0 15 7 15 15 0 18 -2 18 -18 0z"/>
<path d="M1838 353 c12 -2 32 -2 45 0 12 2 2 4 -23 4 -25 0 -35 -2 -22 -4z"/>
<path d="M1809 275 l-16 -55 94 0 c110 0 152 15 183 65 11 18 20 35 20 39 0 3
-60 6 -132 6 l-133 0 -16 -55z"/>
<path d="M44 165 c-22 -85 -38 -157 -36 -160 8 -8 140 -6 146 3 2 4 22 76 44
160 l41 152 -77 0 -77 0 -41 -155z"/>
<path d="M284 293 c3 -16 8 -53 11 -83 18 -164 37 -196 122 -207 l50 -5 78
113 c43 63 94 135 113 162 l34 47 -207 0 -207 0 6 -27z"/>
<path d="M686 167 c-25 -84 -46 -156 -46 -160 0 -4 52 -7 115 -7 l114 0 10 38
c35 129 71 268 71 275 0 4 -49 7 -109 7 l-108 0 -47 -153z"/>
<path d="M990 278 c-7 -24 -20 -74 -31 -113 -26 -94 -25 -131 3 -146 15 -8 89
-14 198 -17 351 -8 524 53 599 212 12 26 24 61 28 77 l6 29 -127 0 c-125 0
-126 0 -126 -23 0 -36 -48 -123 -85 -156 -19 -16 -51 -35 -72 -40 -45 -13
-190 -15 -197 -3 -3 5 7 57 23 115 l28 107 -118 0 -118 0 -11 -42z"/>
<path d="M2114 288 c-4 -18 -7 -61 -7 -95 1 -75 25 -129 72 -160 33 -22 42
-23 265 -23 256 0 272 3 309 68 l17 30 -167 -1 c-93 -1 -180 1 -195 6 -40 11
-62 59 -55 121 3 28 8 59 12 69 7 16 -3 17 -118 17 l-125 0 -8 -32z"/>
<path d="M1695 90 c-10 -11 -45 -33 -78 -50 l-60 -30 214 0 c195 0 217 2 246
20 18 10 39 33 48 50 l16 30 -184 0 c-171 0 -185 -1 -202 -20z"/>
</g>
</svg>
